# xmcd
#
# Track frame offsets:
#	150
#	11170
#	26894
#	42698
#	57231
#	74084
#	89780
#	110655
#	127619
#	138913
#	154170
#	167723
#	185861
#	196009
#	214044
#	228906
#	248968
#	262149
#	275760
#
# Disc length: 3893 seconds
#
# Revision: 1
# Processed by: cddbd v1.5.2PL0 Copyright (c) Steve Scherf et al.
# Submitted via: audiograbber 1.83.01
#
DISCID=290f3313
DTITLE=Various Artist - Country Radio November 2001
DYEAR=2001
DGENRE=Country
TTITLE0=Dixie Chicks - Somedays You Gotta Dance
TTITLE1=Clint Black - Lisa Hartman Black - Easy For Me To Say
TTITLE2=Phil Vassar - That's When I Love You
TTITLE3=Blake Shelton - All Over Me
TTITLE4=Jimmy Rankin - You and Me
TTITLE5=Perfect Stranger - Miracle
TTITLE6=Carolyn Dawn Johnson - I Don't Want You To Go
TTITLE7=Brooks and Dunn - Long Goodbye, The
TTITLE8=Diamond Rio - That's Just That
TTITLE9=Robin English - Girl In Love
TTITLE10=Hank III - What Did Love Ever Do To You
TTITLE11=K.T. Oslin - Drivin', Cryin', Missin' You
TTITLE12=Irene Kelley - Never Lookin' Back
TTITLE13=Rascal Flatts - I'm Movin' On
TTITLE14=Jameson Clark - Don't Play Any Love Songs
TTITLE15=Mark Wills - Jamie O'Neal - I'm Not Gonna Do Anything Without You
TTITLE16=Tracy Lawrence - Life Don't Have To Be So Hard
TTITLE17=Derailers, the - More Of Your Love
TTITLE18=Wild Horses - I Will Survive
EXTD=
EXTT0=
EXTT1=
EXTT2=
EXTT3=
EXTT4=
EXTT5=
EXTT6=
EXTT7=
EXTT8=
EXTT9=
EXTT10=
EXTT11=
EXTT12=
EXTT13=
EXTT14=
EXTT15=
EXTT16=
EXTT17=
EXTT18=
PLAYORDER=
